# xmcd CD database file
#
# Track frame offsets:
#	150
#	23743
#	41925
#	61895
#	79841
#	110867
#	126711
#	137317
#	178040
#	199217
#	223388
#	246111
#	267584
#	291059
#	307138
#	332506
#
# Disc length: 4780 seconds
#
# Revision: 0
# Processed by: cddbd v1.5.2PL0 Copyright (c) Steve Scherf et al.
# Submitted via: CDex 1.51
#
DISCID=0412aa10
DTITLE=Rozni wykonawcy - Antologia Polskiego Bluesa 3 - CD1 Pogromcy gitary 1
DYEAR=2011
DGENRE=Blues
TTITLE0=Tadeusz Nalepa (Breakout) - Rzeka dziecinstwa
TTITLE1=Janusz Poplawski (Niebiesko-Czarni) - Pod naszym niebem
TTITLE2=Andrzej Urny (Czarne Komety z Po³udnia) - It's A Man's, Man's World
TTITLE3=Jaroslaw Tioskow (Kasa Chorych) - Soba badz
TTITLE4=Jerzy Styczynski/Adam Otreba (Dzem) - Ani duzo, ani malo
TTITLE5=Zbyszek Niedzielski/Piotr Zaleski (Bluestemper) - I Quit, Baby
TTITLE6=Andrzej Wodzinski (Easy Rider) - Love To You
TTITLE7=Grzegorz Kapolka - Blues For Alan
TTITLE8=Mieczyslaw Wrobel (Mietek Blues Band) - Further On Up The Road
TTITLE9=Tadeusz Pocieszynski (Monkey Business) - Bluesanka
TTITLE10=Maurycy Meczekalski (Tortilla Flat) - Thrill Is Gone
TTITLE11=Waldemar Baranowski (After Blues) - Kilka pytan
TTITLE12=Slawek Malecki (Zdrowa Woda) - Balanga
TTITLE13=Adam Kulisz (Kulisz Trio) - Jestem szalony
TTITLE14=Leszek Winder (Bledowski-Winder Band) - Kawie
TTITLE15=Tadeusz Nalepa - Swiety boze nie pomoze (live)
EXTD=YEAR: 2011
EXTT0=
EXTT1=
EXTT2=
EXTT3=
EXTT4=
EXTT5=
EXTT6=
EXTT7=
EXTT8=
EXTT9=
EXTT10=
EXTT11=
EXTT12=
EXTT13=
EXTT14=
EXTT15=
PLAYORDER=
